#!OML:ASF H:\Not Pregnant\Project 1\Capture day 1\Session 1\non-pregnant.ASF
:FULLY-SPECIFIED
:DEGREES
2564
root 7.27957 14.7823 30.7782 67.5422 -72.4655 -52.7505
lowerback -2.89312 -0.89213 7.3034
upperback -11.9588 -1.23563 4.17777
thorax -11.2973 -1.33209 0.600096
lowerneck 6.51136 -8.16815 -28.3969
upperneck 5.48744 -17.578 38.7348
head 7.2479 -9.94977 18.5759
rclavicle -1.16289e-014 4.49253e-014
rhumerus -46.725 -39.1332 12.4421
rradius 28.8466
rwrist 40.534
rhand -19.8333 -8.0751
rfingers 7.12502
rthumb 6.50073 -37.9553
lclavicle -1.16289e-014 4.49253e-014
lhumerus -14.6624 21.222 -8.71716
lradius 30.3258
lwrist 23.3161
lhand -16.1718 -0.72564
lfingers 7.12502
lthumb 10.0344 29.0151
rfemur -0.2999 1.06966 14.0143
rtibia 7.95139e-015
rfoot -10.0882 -6.7836
rtoes -39.0152
lfemur -172.516 14.2595 -153.203
ltibia 19.273
lfoot -82.7718 -68.9215
ltoes -21.533
2565
root 7.2782 14.7814 30.7863 67.8742 -72.4467 -53.116
lowerback -2.67534 -0.924921 6.94426
upperback -11.9751 -1.26497 4.17393
thorax -11.4325 -1.31144 0.80404
lowerneck 6.77864 -8.23029 -28.1523
upperneck 5.02983 -17.6571 38.9637
head 7.10063 -10.0262 18.6136
rclavicle -1.32192e-014 1.03368e-014
rhumerus -46.9539 -39.448 12.7771
rradius 28.6133
rwrist 41.099
rhand -19.7137 -8.05925
rfingers 7.12502
rthumb 6.61616 -37.9359
lclavicle -1.32192e-014 1.03368e-014
lhumerus -14.3575 21.1814 -9.07835
lradius 30.3169
lwrist 23.2077
lhand -15.8624 -0.488236
lfingers 7.12502
lthumb 10.3329 29.2379
rfemur -0.299248 1.17436 14.0517
rtibia 6.36111e-015
rfoot -10.0954 -6.8033
rtoes -39.0202
lfemur -172.71 13.7086 -153.294
ltibia 19.4123
lfoot -84.0239 -68.7666
ltoes -21.4569
2566
root 7.27676 14.7804 30.7955 68.2409 -72.4327 -53.5188
lowerback -2.45985 -0.954321 6.56622
upperback -11.9911 -1.29231 4.17799
thorax -11.5653 -1.28688 1.02713
lowerneck 7.07373 -8.28681 -27.8906
upperneck 4.54371 -17.7177 39.1853
head 6.9291 -10.097 18.6473
rclavicle 2.95195e-014 -2.90226e-014
rhumerus -47.1939 -39.8346 13.1668
rradius 28.3544
rwrist 41.7789
rhand -19.5666 -8.04763
rfingers 7.12502
rthumb 6.75824 -37.9198
lclavicle 2.95195e-014 -2.90226e-014
lhumerus -14.0513 21.177 -9.43842
lradius 30.2977
lwrist 23.0635
lhand -15.6043 -0.310234
lfingers 7.12502
lthumb 10.5819 29.4034
rfemur -0.30117 1.29152 14.0849
rtibia -4.77083e-015
rfoot -10.0999 -6.82563
rtoes -39.0405
lfemur -172.916 13.3276 -153.335
ltibia 19.5798
lfoot -84.7224 -68.7444
ltoes -21.2693
2567
root 7.27495 14.7797 30.8061 68.6415 -72.4179 -53.9491
lowerback -2.26259 -0.98323 6.17629
upperback -12.0051 -1.32293 4.19345
thorax -11.6845 -1.26144 1.26907
lowerneck 7.37447 -8.33981 -27.6217
upperneck 4.04742 -17.7643 39.4004
head 6.74661 -10.1626 18.6797
rclavicle 2.68359e-015 1.98785e-014
rhumerus -47.434 -40.3125 13.6049
rradius 28.0736
rwrist 42.5637
rhand -19.3991 -8.04488
rfingers 7.12502
rthumb 6.91995 -37.9118
lclavicle 2.68359e-015 1.98785e-014
lhumerus -13.7475 21.232 -9.80153
lradius 30.2556
lwrist 22.8752
lhand -15.3951 -0.186862
lfingers 7.12502
lthumb 10.7837 29.5163
rfemur -0.31218 1.41561 14.1173
rtibia 1.43125e-014
rfoot -10.1016 -6.84809
rtoes -39.0678
lfemur -173.126 13.0943 -153.326
ltibia 19.7734
lfoot -84.9526 -68.8381
ltoes -20.9931
2568
root 7.27267 14.7795 30.8183 69.0793 -72.4128 -54.3997
lowerback -2.09854 -1.01322 5.75955
upperback -12.0198 -1.36079 4.2242
thorax -11.7836 -1.23558 1.5422
lowerneck 7.68044 -8.38796 -27.3609
upperneck 3.5475 -17.7993 39.6132
head 6.5588 -10.2249 18.7174
rclavicle -1.44119e-014 -1.55052e-014
rhumerus -47.6388 -40.8416 14.0389
rradius 27.7898
rwrist 43.3766
rhand -19.2164 -8.07399
rfingers 7.12502
rthumb 7.09628 -37.935
lclavicle -1.44119e-014 -1.55052e-014
lhumerus -13.4729 21.3256 -10.1713
lradius 30.2112
lwrist 22.6692
lhand -15.232 -0.0984946
lfingers 7.12502
lthumb 10.941 29.5964
rfemur -0.344463 1.5472 14.1365
rtibia -4.77083e-015
rfoot -10.0975 -6.87139
rtoes -39.104
lfemur -173.331 13.0145 -153.276
ltibia 19.9884
lfoot -84.6856 -69.0514
ltoes -20.6343
2569
root 7.26967 14.7797 30.832 69.5824 -72.4035 -54.8948
lowerback -1.97717 -1.04264 5.32745
upperback -12.0337 -1.40351 4.27441
thorax -11.855 -1.20914 1.8441
lowerneck 7.9819 -8.43691 -27.1019
upperneck 3.05152 -17.8316 39.8224
head 6.37258 -10.2871 18.7558
rclavicle 4.12478e-014 -1.35174e-014
rhumerus -47.7863 -41.385 14.4188
rradius 27.5196
rwrist 44.1432
rhand -19.0377 -8.17259
rfingers 7.12502
rthumb 7.26876 -38.0277
lclavicle 4.12478e-014 -1.35174e-014
lhumerus -13.2156 21.4495 -10.5446
lradius 30.1602
lwrist 22.47
lhand -15.1092 -0.0433862
lfingers 7.12502
lthumb 11.0594 29.6452
rfemur -0.402371 1.6879 14.1608
rtibia 4.77083e-015
rfoot -10.085 -6.89734
rtoes -39.1572
lfemur -173.529 13.0494 -153.176
ltibia 20.2192
lfoot -84.0308 -69.3307
ltoes -20.2444
